# xmcd CD database file
#
# Track frame offsets:
#	150
#	15830
#	29880
#	45642
#	64670
#	81145
#	97252
#	108555
#	122632
#	139392
#	154117
#	170472
#
# Disc length: 2466 seconds
#
# Revision: 8
# Processed by: cddbd v1.5.2PL0 Copyright (c) Steve Scherf et al.
# Submitted via: CDex 1.70beta2
#
DISCID=a109a00c
DTITLE=Toby Keith - How Do You Like Me Now
DYEAR=1999
DGENRE=Country
TTITLE0=How Do You Like Me Now ( 1999 ) - Toby Keith
TTITLE1=When Love Fades ( 1999 ) - Toby Keith
TTITLE2=Blue Bedroom ( 1999 ) - Toby Keith
TTITLE3=New Orleans ( 1999 ) - Toby Keith
TTITLE4=Country Comes To Town ( 1999 ) - Toby Keith
TTITLE5=Heart To Heart (Stelen's Song) ( 1999 ) - Toby Keith
TTITLE6=She Only Gets That Way With Me ( 1999 ) - Toby Keith
TTITLE7=Die With Your Boots On ( 1999 ) - Toby Keith
TTITLE8=You Shouldn't Kiss Me Like This ( 1999 ) - Toby Keith
TTITLE9=Hold You Kiss You Love You ( 1999 ) - Toby Keith
TTITLE10=Do I Know You ( Bottom Of My Heart ) ( 1999 ) - Toby Keith
TTITLE11=I Know A Wall When I See One ( 1999 ) - Toby Keith
EXTD=YEAR: 1999
EXTT0=
EXTT1=
EXTT2=
EXTT3=
EXTT4=
EXTT5=
EXTT6=
EXTT7=
EXTT8=
EXTT9=
EXTT10=
EXTT11=
PLAYORDER=
